<svg width="52" height="64" viewBox="0 0 52 64" fill="none" xmlns="http://www.w3.org/2000/svg">
<mask id="mask0_557_808" style="mask-type:luminance" maskUnits="userSpaceOnUse" x="0" y="0" width="52" height="64">
<path d="M51.5 0H0.5V64H51.5V0Z" fill="white"/>
</mask>
<g mask="url(#mask0_557_808)">
<path d="M36.4733 5.75869L49.8257 18.7667C50.9623 19.8716 51.5217 20.9896 51.5041 22.1162C51.4865 23.2428 50.9975 24.2697 50.0416 25.2013C49.0416 26.1763 47.9623 26.6703 46.8081 26.6919C45.6539 26.7093 44.5085 26.1633 43.3719 25.0584L29.7156 11.7557C28.1649 10.2435 26.6671 9.17318 25.2266 8.54488C23.786 7.91658 22.2706 7.81692 20.6847 8.25023C19.0944 8.67921 17.3896 9.78415 15.5614 11.5607C13.0416 14.0176 11.8389 16.3228 11.9623 18.4764C12.0856 20.6299 13.3367 22.8658 15.7112 25.1754L29.4777 38.5907C30.6275 39.7086 31.1913 40.8265 31.1737 41.9358C31.1561 43.0494 30.6627 44.0764 29.6891 45.0253C28.72 45.9699 27.6495 46.4639 26.4865 46.5029C25.3235 46.5419 24.1649 46.0003 23.0195 44.8823L9.66709 31.8743C7.49529 29.7598 5.927 27.7579 4.96225 25.8686C3.99749 23.9794 3.63626 21.8432 3.88736 19.46C4.11203 17.4191 4.77722 15.4432 5.88736 13.528C6.99308 11.6127 8.57899 9.65416 10.6363 7.64793C13.0856 5.26039 15.4248 3.43182 17.6539 2.15788C19.8786 0.883949 22.0327 0.177652 24.112 0.0303266C26.1957 -0.116999 28.2486 0.290313 30.2794 1.25226C32.3103 2.21421 34.372 3.71347 36.4689 5.75869H36.4733Z" fill="url(#paint0_linear_557_808)"/>
<path d="M15.5263 58.2455L2.17833 45.2375C1.04177 44.1282 0.482294 43.0146 0.499915 41.888C0.517536 40.7614 1.00652 39.7345 1.96247 38.8028C2.96247 37.8279 4.04177 37.3339 5.19595 37.3122C6.35014 37.2949 7.49551 37.8365 8.63208 38.9458L22.284 52.2485C23.8391 53.7607 25.3325 54.831 26.773 55.4593C28.2136 56.0876 29.729 56.1829 31.3193 55.7539C32.9096 55.325 34.6144 54.22 36.4426 52.4391C38.9625 49.9822 40.1651 47.677 40.0418 45.5235C39.9184 43.3699 38.6673 41.134 36.2929 38.8202L28.9581 31.7355C27.8083 30.6176 27.2444 29.4996 27.262 28.3904C27.2796 27.2768 27.773 26.2498 28.7466 25.3009C29.7158 24.3562 30.7863 23.8623 31.9492 23.8233C33.1122 23.7843 34.2708 24.3259 35.4162 25.4439L42.3325 32.1212C44.5043 34.2357 46.0726 36.2376 47.0374 38.1269C48.0021 40.0161 48.3633 42.1523 48.1122 44.5355C47.8876 46.5764 47.2224 48.5523 46.1122 50.4676C45.0065 52.3828 43.4206 54.3414 41.3633 56.3476C38.914 58.7351 36.5748 60.5637 34.3457 61.8376C32.1166 63.1116 29.9625 63.8222 27.8788 63.9695C25.7951 64.1169 23.7422 63.7095 21.7114 62.7476C19.6805 61.7856 17.6188 60.2864 15.5219 58.2412L15.5263 58.2455Z" fill="url(#paint1_linear_557_808)"/>
<path d="M23.8523 24.6816C26.5602 24.6816 28.7554 22.5224 28.7554 19.8588C28.7554 17.1953 26.5602 15.0361 23.8523 15.0361C21.1444 15.0361 18.9492 17.1953 18.9492 19.8588C18.9492 22.5224 21.1444 24.6816 23.8523 24.6816Z" fill="url(#paint2_radial_557_808)"/>
</g>
<defs>
<linearGradient id="paint0_linear_557_808" x1="47.6296" y1="13.3372" x2="6.47789" y2="31.9299" gradientUnits="userSpaceOnUse">
<stop stop-color="#201C1B"/>
<stop offset="0.36" stop-color="#77390D"/>
<stop offset="0.67" stop-color="#EA8101"/>
<stop offset="1" stop-color="#F4B852"/>
</linearGradient>
<linearGradient id="paint1_linear_557_808" x1="5.51367" y1="51.2029" x2="53.3346" y2="36.7333" gradientUnits="userSpaceOnUse">
<stop stop-color="#1F1D1C"/>
<stop offset="0.37" stop-color="#77390D"/>
<stop offset="0.67" stop-color="#EA8101"/>
<stop offset="1" stop-color="#F4FB52"/>
</linearGradient>
<radialGradient id="paint2_radial_557_808" cx="0" cy="0" r="1" gradientUnits="userSpaceOnUse" gradientTransform="translate(23.8523 19.8632) scale(4.90308 4.82275)">
<stop stop-color="#F4B852"/>
<stop offset="0.33" stop-color="#EA8101"/>
<stop offset="0.64" stop-color="#77390D"/>
<stop offset="1" stop-color="#211C1D"/>
</radialGradient>
</defs>
</svg>
