<svg width="64" height="64" viewBox="0 0 64 64" fill="none" xmlns="http://www.w3.org/2000/svg">
<g clip-path="url(#clip0_557_840)">
<path d="M63.6625 62.6375V51.0495C63.6625 50.5899 63.4799 50.1517 63.1544 49.8262L13.8487 0.520389C13.5231 0.194787 13.0849 0.012207 12.6254 0.012207H1.03766C0.465579 0.012207 0 0.477787 0 1.04987V11.816C0 12.2755 0.18258 12.7137 0.508181 13.0393L18.2063 30.7373C18.611 31.1423 18.611 31.7995 18.2063 32.2042L0.304301 50.1061C0.109548 50.3009 0 50.5656 0 50.8395V62.6375C0 63.209 0.465579 63.6752 1.03766 63.6752H20.4003C20.9724 63.6752 21.4379 63.209 21.4379 62.6375V55.6871C21.4379 55.4132 21.5475 55.1484 21.7423 54.9537L31.3459 45.3498C31.7506 44.9451 32.4079 44.9451 32.8128 45.3498L50.6325 63.17C50.9581 63.4955 51.3963 63.6781 51.8558 63.6781H62.6219C63.194 63.6781 63.6595 63.2122 63.6595 62.6405L63.6625 62.6375Z" fill="white"/>
<path d="M37.8338 15.3578H47.5319C48.1068 15.3578 48.5755 15.8264 48.5755 16.4016V26.0995C48.5755 27.0307 49.7015 27.4964 50.3588 26.8359L63.6627 13.5107C63.8572 13.3159 63.9673 13.0512 63.9673 12.7743V1.10437C63.9673 0.529248 63.5012 0.0606253 62.9233 0.0606253L51.0799 0.0454102C50.8032 0.0454102 50.5384 0.154958 50.3404 0.349711L37.0944 13.5746C36.4371 14.2319 36.9026 15.3578 37.8308 15.3578H37.8338Z" fill="#EE7A30"/>
</g>
<defs>
<clipPath id="clip0_557_840">
<rect width="64" height="64" fill="white"/>
</clipPath>
</defs>
</svg>
