<svg width="21" height="16" viewBox="0 0 21 16" fill="none" xmlns="http://www.w3.org/2000/svg">
<path d="M17.8034 1.33716C16.4344 0.71103 14.9805 0.2547 13.4629 0C13.2719 0.32899 13.0596 0.77471 12.911 1.12492C11.2969 0.89144 9.6944 0.89144 8.10255 1.12492C7.95397 0.77471 7.7311 0.32899 7.55068 0C6.02251 0.2547 4.56861 0.71103 3.20915 1.33716C0.460529 5.39111 -0.282341 9.3495 0.0890987 13.2549C1.91443 14.5815 3.67612 15.388 5.40701 15.9187C5.83151 15.3456 6.21356 14.73 6.54255 14.0827C5.91641 13.8492 5.32211 13.5627 4.74904 13.2231C4.89762 13.117 5.0462 13.0003 5.18416 12.8835C8.6438 14.4648 12.3911 14.4648 15.8082 12.8835C15.9568 13.0003 16.0948 13.117 16.2434 13.2231C15.6703 13.5627 15.076 13.8492 14.4499 14.0827C14.7789 14.73 15.1609 15.3456 15.5854 15.9187C17.3152 15.388 19.0875 14.5815 20.9033 13.2549C21.3596 8.7341 20.1806 4.80747 17.8034 1.33716ZM7.0201 10.8459C5.98007 10.8459 5.13107 9.9014 5.13107 8.7447C5.13107 7.5879 5.95884 6.6434 7.0201 6.6434C8.07071 6.6434 8.9303 7.5879 8.9091 8.7447C8.9091 9.9014 8.07071 10.8459 7.0201 10.8459ZM13.9936 10.8459C12.9535 10.8459 12.1034 9.9014 12.1034 8.7447C12.1034 7.5879 12.9323 6.6434 13.9936 6.6434C15.0442 6.6434 15.9038 7.5879 15.8825 8.7447C15.8825 9.9014 15.0548 10.8459 13.9936 10.8459Z" fill="#55445E"/>
</svg>
