<svg width="83" height="83" viewBox="0 0 83 83" fill="none" xmlns="http://www.w3.org/2000/svg">
<path fill-rule="evenodd" clip-rule="evenodd" d="M6.90757 41.7134L44.3177 4.04503L40.8695 0.573061L0 41.7248L41.2601 83L44.697 79.5167L6.90757 41.7134Z" fill="#FF5920"/>
<path fill-rule="evenodd" clip-rule="evenodd" d="M23.8411 42.1067L41.3661 24.4607L37.918 20.9888L16.9448 42.1067L32.0149 57.2809L35.4631 53.8089L23.8411 42.1067Z" fill="#FF5920"/>
<path d="M48.8816 29.7793C48.8816 27.8885 50.4521 26.3427 52.3715 26.3427C54.1993 26.3461 55.7354 27.9201 55.7308 29.7793H48.8816Z" fill="#FF5920"/>
<path fill-rule="evenodd" clip-rule="evenodd" d="M55.7308 29.7793C55.7308 29.7737 55.7308 29.7681 55.7308 29.7625C55.7306 29.6814 55.7274 29.6008 55.7215 29.5209C55.5913 27.7766 54.114 26.3459 52.3715 26.3427C50.5403 26.3427 49.0267 27.7497 48.8915 29.5209C48.8849 29.6062 48.8816 29.6924 48.8816 29.7793H55.7308ZM49.149 29.5209H55.464C55.3342 27.9164 53.9695 26.6042 52.3713 26.6011C50.6772 26.6013 49.2838 27.8971 49.149 29.5209Z" fill="#FF5920"/>
<path fill-rule="evenodd" clip-rule="evenodd" d="M41.4386 0L55.8113 14.4719V22.3371H50.9349V16.5057L41.4386 6.94394L35.6472 12.7753L42.7789 19.9563L34.181 68.5405L41.4386 75.8482L48.8398 68.396C42.6204 65.4785 39.9738 59.3485 40.436 53.6023C40.9798 46.843 45.9232 40.1685 54.3997 40.1685C60.7008 40.1685 64.6806 42.7563 66.8475 46.337C67.6241 47.6204 68.1389 48.9827 68.4584 50.3217L76.1037 42.6236L57.6804 24.0731L61.1285 20.6011L83 42.6236L62.8624 62.9002L63.9214 55.5788C64.1861 53.7481 63.9841 51.0417 62.6832 48.8919C61.4943 46.9272 59.186 45.0786 54.3997 45.0786C49.0169 45.0786 45.6831 49.1935 45.2965 53.9988C44.9188 58.6943 47.445 63.6165 53.8475 64.8952L58.3248 65.7894L41.4386 82.7921L28.9339 70.201L37.5318 21.6168L28.7509 12.7753L41.4386 0Z" fill="#FF5920"/>
</svg>
