<svg width="21" height="17" viewBox="0 0 21 17" fill="none" xmlns="http://www.w3.org/2000/svg">
<path d="M20.3844 1.96171C19.621 2.29941 18.8114 2.52121 17.9825 2.61977C18.8558 2.09698 19.5093 1.27456 19.8212 0.305713C19.0006 0.793273 18.1024 1.13643 17.1657 1.32027C16.375 0.476723 15.2699 -0.00130731 14.1137 2.68539e-06C11.8045 2.68539e-06 9.93158 1.87227 9.93158 4.18249C9.93158 4.51024 9.96918 4.82808 10.0395 5.13475C6.56235 4.9597 3.48195 3.29571 1.41866 0.765073C1.04717 1.40333 0.85193 2.12884 0.85292 2.86733C0.85292 4.31825 1.59148 5.5989 2.71337 6.34866C2.04925 6.32766 1.39976 6.1483 0.81906 5.82539C0.81842 5.84296 0.81842 5.86053 0.81842 5.87714C0.81842 7.90406 2.26007 9.59486 4.17387 9.97876C3.81468 10.076 3.4442 10.1251 3.0721 10.1248C2.80185 10.1248 2.53959 10.0999 2.28467 10.051C2.81719 11.7122 4.36074 12.9216 6.19148 12.9548C4.71001 14.1175 2.88057 14.7483 0.99731 14.7456C0.664 14.7459 0.33097 14.7262 0 14.6868C1.91192 15.9159 4.1374 16.5682 6.4103 16.5658C14.1035 16.5658 18.3099 10.1932 18.3099 4.66677C18.3099 4.48596 18.3055 4.30452 18.2975 4.12563C19.1162 3.53411 19.8229 2.80133 20.3844 1.96171Z" fill="#55445E"/>
</svg>
